{
    "asset": {
        "version": "2.0",
        "generator": "ChatGPT low-poly glTF generator"
    },
    "scene": 0,
    "scenes": [
        {
            "nodes": [
                0
            ]
        }
    ],
    "nodes": [
        {
            "mesh": 0,
            "name": "Low Poly Fox Animal"
        }
    ],
    "meshes": [
        {
            "name": "Low Poly Fox Animal Mesh",
            "primitives": [
                {
                    "attributes": {
                        "POSITION": 0,
                        "NORMAL": 1,
                        "COLOR_0": 2
                    },
                    "indices": 3,
                    "material": 0,
                    "mode": 4
                }
            ]
        }
    ],
    "materials": [
        {
            "name": "Vertex Color Material",
            "pbrMetallicRoughness": {
                "baseColorFactor": [
                    1,
                    1,
                    1,
                    1
                ],
                "metallicFactor": 0,
                "roughnessFactor": 0.85
            }
        }
    ],
    "buffers": [
        {
            "uri": "data:application/octet-stream;base64,",
            "byteLength": 18900
        }
    ],
    "bufferViews": [
        {
            "buffer": 0,
            "byteOffset": 0,
            "byteLength": 5400,
            "target": 34962
        },
        {
            "buffer": 0,
            "byteOffset": 5400,
            "byteLength": 5400,
            "target": 34962
        },
        {
            "buffer": 0,
            "byteOffset": 10800,
            "byteLength": 7200,
            "target": 34962
        },
        {
            "buffer": 0,
            "byteOffset": 18000,
            "byteLength": 900,
            "target": 34963
        }
    ],
    "accessors": [
        {
            "bufferView": 0,
            "byteOffset": 0,
            "componentType": 5126,
            "count": 450,
            "type": "VEC3",
            "min": [
                -0.9,
                -0.275,
                -2.29
            ],
            "max": [
                0.9,
                2.0,
                1.48
            ]
        },
        {
            "bufferView": 1,
            "byteOffset": 0,
            "componentType": 5126,
            "count": 450,
            "type": "VEC3"
        },
        {
            "bufferView": 2,
            "byteOffset": 0,
            "componentType": 5126,
            "count": 450,
            "type": "VEC4"
        },
        {
            "bufferView": 3,
            "byteOffset": 0,
            "componentType": 5123,
            "count": 450,
            "type": "SCALAR"
        }
    ]
}